<svg height="449pt" viewBox="-71 0 449 449.55826" width="449pt" xmlns="http://www.w3.org/2000/svg"><path d="m67.730469 29.941406v35.171875c0 15.917969-6.34375 31.164063-17.585938 42.40625l-24.820312 24.820313c-11.242188 11.242187-17.585938 26.492187-17.585938 42.40625v207.472656c0 33.058594 26.824219 59.992188 59.992188 59.992188h172.410156c33.058594 0 59.992187-26.824219 59.992187-59.992188v-207.472656c0-15.914063-6.34375-31.164063-17.585937-42.40625l-24.820313-24.820313c-11.242187-11.242187-17.585937-26.488281-17.585937-42.40625v-35.171875zm0 0" fill="#fcf0dd"/><path d="m67.730469 37.507812h172.410156v29.941407h-172.410156zm0 0" fill="#f9e1bb"/><path d="m279.433594 129.335938c-61.109375 98.726562-158.832032 169.183593-271.695313 196.007812v56.875c0 33.058594 26.824219 59.992188 59.992188 59.992188h172.410156c33.058594 0 59.992187-26.824219 59.992187-59.992188v-207.472656c0-15.914063-6.34375-31.164063-17.585937-42.40625zm0 0" fill="#f9e1bb"/><path d="m105.128906 307.3125c37.289063 0 67.449219 30.164062 67.449219 67.449219 0 37.285156-30.160156 67.449219-67.449219 67.449219-37.285156 0-67.449218-30.164063-67.449218-67.449219 0-37.285157 30.273437-67.449219 67.449218-67.449219zm0 0" fill="#d36157"/><path d="m202.632812 307.3125c37.285157 0 67.449219 30.164062 67.449219 67.449219 0 37.285156-30.164062 67.449219-67.449219 67.449219-37.289062 0-67.453124-30.164063-67.453124-67.449219 0-37.285157 30.164062-67.449219 67.453124-67.449219zm0 0" fill="#e37c55"/><path d="m75.1875 172.410156c37.289062 0 67.453125 30.164063 67.453125 67.449219 0 37.289063-30.164063 67.453125-67.453125 67.453125-37.285156 0-67.449219-30.164062-67.449219-67.453125 0-37.285156 30.164063-67.449219 67.449219-67.449219zm0 0" fill="#e37c55"/><path d="m157.664062 224.835938c37.289063 0 67.449219 30.164062 67.449219 67.449218s-30.160156 67.449219-67.449219 67.449219c-37.285156 0-67.449218-30.164063-67.449218-67.449219s30.164062-67.449218 67.449218-67.449218zm0 0" fill="#f09c57"/><path d="m232.574219 172.410156c37.285156 0 67.449219 30.164063 67.449219 67.449219 0 37.289063-30.164063 67.453125-67.449219 67.453125-37.289063 0-67.453125-30.164062-67.453125-67.453125 0-37.285156 30.164062-67.449219 67.453125-67.449219zm0 0" fill="#e37c55"/><path d="m157.664062 89.933594c37.289063 0 67.449219 30.164062 67.449219 67.449218 0 37.289063-30.160156 67.453126-67.449219 67.453126-37.285156 0-67.449218-30.164063-67.449218-67.453126 0-37.285156 30.164062-67.449218 67.449218-67.449218zm0 0" fill="#f09c57"/><path d="m52.703125 7.457031h209.808594c8.238281 0 15.027343 6.679688 15.027343 15.027344v15.023437c0 8.238282-6.679687 15.027344-15.027343 15.027344h-209.808594c-8.234375 0-15.023437-6.679687-15.023437-15.027344v-15.023437c0-8.238281 6.789062-15.027344 15.023437-15.027344zm0 0" fill="#f1b355"/><path d="m262.511719 7.457031h-75.015625c-12.132813 15.917969-25.269532 30.941407-39.402344 44.96875h114.53125c8.234375 0 15.027344-6.679687 15.027344-15.027343v-14.914063c-.113282-8.238281-6.792969-15.027344-15.140625-15.027344zm0 0" fill="#f09c57"/><path d="m287.78125 127-24.824219-24.824219c-9.90625-9.792969-15.359375-23.148437-15.359375-37.0625v-5.121093h15.027344c12.464844 0 22.484375-10.015626 22.484375-22.484376v-15.023437c0-12.46875-10.019531-22.484375-22.484375-22.484375h-209.921875c-12.464844 0-22.480469 10.015625-22.480469 22.484375v15.023437c0 12.46875 10.015625 22.484376 22.480469 22.484376h7.460937v5.121093c0 13.914063-5.457031 27.269531-15.363281 37.0625l-24.820312 24.824219c-12.6875 12.574219-19.8125 29.828125-19.699219 47.636719v207.472656c0 37.285156 30.164062 67.449219 67.449219 67.449219h172.410156c37.289063 0 67.449219-30.164063 67.449219-67.449219v-207.363281c0-17.917969-7.121094-35.058594-19.808594-47.746094zm-235.078125-82.03125c-4.117187 0-7.457031-3.339844-7.457031-7.460938v-15.023437c0-4.121094 3.339844-7.457031 7.457031-7.457031h209.808594c4.121093 0 7.460937 3.335937 7.460937 7.457031v15.023437c0 4.121094-3.339844 7.460938-7.460937 7.460938zm90.492187 189.214844c4.898438-1.113282 9.792969-1.78125 14.804688-1.78125-.222656 2.449218-.445312 5.011718-.445312 7.457031.109374 34.171875 23.261718 63.890625 56.320312 72.460937-7.125 19.921876-24.042969 34.617188-44.855469 38.84375-9.683593 1.894532-19.8125 1.335938-29.273437-1.558593-19.925782-6.230469-35.285156-22.480469-40.292969-42.851563l-.222656-1c-.113281-.667968-.335938-1.335937-.445313-2.003906-6.121094-31.277344 13.46875-61.996094 44.410156-69.566406zm29.382813 5.675781c0-3.113281.335937-6.230469.78125-9.238281 1.445313-.332032 3.003906-.777344 4.5625-1.222656l.667969-.222657c3.117187-.890625 6.121094-2.003906 9.015625-3.339843l1-.445313c2.785156-1.335937 5.566406-2.78125 8.128906-4.453125.332031-.222656.777344-.445312 1.109375-.777344 2.5625-1.667968 5.011719-3.449218 7.347656-5.453125l1.113282-.890625c2.335937-2.003906 4.453124-4.117187 6.457031-6.34375.332031-.335937.667969-.667968.890625-1.003906 2.003906-2.335938 3.894531-4.675781 5.675781-7.234375.222656-.332031.445313-.667969.667969-1 1.78125-2.671875 3.339844-5.34375 4.675781-8.125.109375-.335937.222656-.558594.441406-.890625 1.449219-3.007812 2.671875-6.011719 3.675781-9.128906v-.109375c1.222657-.113281 2.449219-.113281 3.5625-.113281 33.054688 0 59.992188 26.824218 59.992188 59.992187 0 33.171875-26.824219 59.996094-59.992188 59.996094-2.671874 0-5.34375-.222657-8.015624-.558594-29.496094-4.230469-51.644532-29.496094-51.757813-59.4375zm-14.914063-22.035156c-33.390624 0-60.4375-27.046875-60.4375-60.441407 0-33.390624 27.046876-60.4375 60.4375-60.4375 33.390626 0 60.4375 27.046876 60.4375 60.4375 0 33.394532-27.15625 60.441407-60.4375 60.441407zm-59.992187-15.585938c.554687.78125 1.113281 1.449219 1.667969 2.117188 1.335937 1.667969 2.671875 3.226562 4.230468 4.785156.667969.667969 1.226563 1.335937 1.894532 2.003906 1.777344 1.78125 3.78125 3.449219 5.785156 5.007813.335938.222656.558594.558594.890625.78125 2.339844 1.78125 4.785156 3.449218 7.234375 4.894531.78125.445313 1.449219.78125 2.226562 1.226563 1.113282.667968 2.226563 1.335937 3.339844 1.78125-.335937.109374-.554687.332031-.890625.445312-2.78125 1.335938-5.453125 2.894531-8.015625 4.5625-.222656.222656-.554687.332031-.777344.554688-2.449218 1.671874-4.785156 3.453124-7.011718 5.457031-.335938.222656-.667969.554687-1.003906.777343-.777344.667969-1.445313 1.445313-2.222657 2.113282v-13.910156h-14.917969v15.023437h14.027344c-1.113281 1.113281-2.117187 2.226563-3.117187 3.339844-.445313.445312-.78125.890625-1.226563 1.335937-1.890625 2.335938-3.671875 4.785156-5.339844 7.234375-.222656.335938-.445312.78125-.667968 1.226563-1.558594 2.558594-3.007813 5.117187-4.230469 7.789062-.113281.222656-.222656.445313-.335937.667969-1.222657 2.785156-2.335938 5.675781-3.226563 8.683594-.222656.554687-.332031 1.113281-.554687 1.667969-.78125 3.003906-1.449219 6.011718-2.003907 9.015624-.113281.558594-.113281 1.113282-.222656 1.671876-.445313 3.226562-.667969 6.453124-.667969 9.792968 0 2.335938.109375 4.5625.332032 6.902344-2.558594.332031-5.230469.554688-7.789063.554688-33.058594 0-59.996094-26.824219-59.996094-59.992188s26.828125-59.992188 59.996094-59.992188c3.78125 0 7.679687.445313 11.351563 1.113282.335937 1.113281.890624 2.222656 1.335937 3.335937.332031.78125.667969 1.671875 1 2.449219 1.113281 2.785156 2.449219 5.34375 3.898437 8.015625.109376.109375.222657.222656.222657.445313 1.558593 2.558593 3.117187 4.898437 4.785156 7.121093zm-82.476563 179.980469v-97.613281c11.351563 15.25 28.046876 25.601562 46.746094 28.9375-33.722656 23.710937-41.847656 70.347656-18.140625 104.183593 4.339844 6.230469 9.570313 11.6875 15.582031 16.25-25.378906-4.121093-44.078124-26.046874-44.1875-51.757812zm89.933594 52.425781c-33.058594 0-59.882812-26.824219-59.992187-59.992187 0-26.160156 17.027343-49.308594 41.960937-57.210938.113282.445313.335938.777344.445313 1.113282.332031.890624.777343 1.777343 1.113281 2.667968.777344 1.894532 1.667969 3.675782 2.558594 5.457032.445312.890624 1.003906 1.890624 1.449218 2.78125 1 1.78125 2.113282 3.449218 3.226563 5.007812.558594.78125 1.113281 1.558594 1.667969 2.339844 1.558594 2.113281 3.230468 4.117187 4.898437 6.007812.222657.222656.445313.558594.667969.78125s.667969.667969 1.003906.890625h-14.136718v15.023438h15.027343v-14.132813c1.445313 1.445313 3.003907 2.890625 4.5625 4.226563.667969.558593 1.445313 1.113281 2.113281 1.671875 1.671876 1.222656 3.339844 2.449218 5.007813 3.671875.890625.558593 1.78125 1.113281 2.671875 1.667969 1.671875 1.003906 3.453125 1.894531 5.230469 2.785156.890625.445312 1.78125.890625 2.785156 1.335937.445313.222657.890625.445313 1.445313.667969-.109376.777344-.222657 1.445312-.332032 2.113281-.113281.667969-.222656 1.449219-.335937 2.226563-.332031 2.894531-.554688 5.898437-.667969 8.792968 0 2.226563.113281 4.453126.335938 6.789063.109374.78125.222656 1.449219.222656 2.117187.222656 1.445313.332031 3.003907.667968 4.449219.109376.890625.332032 1.671875.554688 2.5625.335938 1.335938.667969 2.671875 1.003906 4.003907.222656.890624.445313 1.671874.777344 2.5625.445312 1.335937.890625 2.558593 1.335938 3.894531.335937.78125.667968 1.667969 1.003906 2.449219.554687 1.335937 1.109375 2.558593 1.777344 3.894531.335937.78125.667968 1.449219 1.113281 2.226562.78125 1.449219 1.558593 2.894531 2.449219 4.230469.335937.554688.558593 1 .890624 1.445312 1.226563 1.78125 2.449219 3.5625 3.785157 5.34375-10.683594 9.238282-24.265625 14.246094-38.289063 14.136719zm44.855469 0c1.335937-1.003906 2.671875-2.003906 3.894531-3.117187 1.226563 1.113281 2.5625 2.113281 3.898438 3.117187zm52.648437 0c-16.363281 0-32.058593-6.679687-43.296874-18.589843-10.6875-11.128907-16.695313-25.933594-16.695313-41.402344 0-2.785156.21875-5.679688.664063-8.460938 0-.113281.113281-.222656.113281-.445312.667969.109375 1.335937.222656 2.003906.332031.667969.113281 1.445313.222656 2.226563.335937 3.339843.445313 6.566406.667969 9.90625.777344h.109374c4.785157 0 9.683594-.445312 14.359376-1.445312 3.226562-.667969 6.457031-1.558594 9.683593-2.558594 1-.335938 2.003907-.890625 3.117188-1.226562 2.003906-.777344 4.117187-1.667969 6.007812-2.558594 1.226563-.558594 2.226563-1.226563 3.453125-1.894532 1.78125-1 3.449219-2 5.117188-3.113281 1.113281-.78125 2.226562-1.558593 3.339844-2.449219 1.449218-1.113281 3.007812-2.339843 4.453124-3.5625 1-.890624 2.003907-1.890624 3.003907-2.894531 1.335937-1.335937 2.671875-2.671875 3.898437-4.117187.890625-1.003906 1.777344-2.117188 2.667969-3.226563 1.226563-1.449219 2.226563-3.117187 3.339844-4.675781.78125-1.113281 1.449219-2.226562 2.226562-3.453125 1.003907-1.667969 1.894531-3.449219 2.78125-5.230469.558594-1.222656 1.226563-2.335937 1.671875-3.5625.109375-.445312.445313-.777344.554688-1.113281 30.164062 13.582031 43.632812 49.085937 30.164062 79.25-9.90625 21.480469-31.277344 35.285156-54.871094 35.285156zm89.933594-52.425781c0 25.710938-18.8125 47.636719-44.1875 51.757812 32.722656-25.265624 38.84375-72.238281 13.6875-104.960937-4.5625-5.898437-10.015625-11.128906-16.136718-15.472656 18.585937-3.335938 35.28125-13.6875 46.636718-28.828125zm0-187.214844c-14.136718-18.921875-36.285156-30.164062-59.992187-30.164062h-.445313c.332032-2.445313.445313-5.007813.445313-7.457032 0-41.402343-33.503907-74.90625-74.910157-74.90625s-74.90625 33.503907-74.90625 74.90625c0 2.671876.222657 5.34375.554688 8.015626-2.671875-.335938-5.339844-.558594-8.011719-.558594-23.597656 0-45.859375 11.242187-59.996093 30.164062v-20.257812c0-13.910156 5.457031-27.269532 15.363281-37.0625l24.820312-24.820313c12.6875-12.578125 19.8125-29.832031 19.699219-47.640625v-5.117187h157.386719v5.117187c0 17.921875 7.011719 35.0625 19.699219 47.640625l24.820312 24.820313c9.90625 9.792968 15.359375 23.152344 15.359375 37.0625v20.257812zm0 0"/><path d="m135.179688 119.875h15.027343v15.027344h-15.027343zm0 0"/><path d="m180.148438 149.925781h15.027343v15.027344h-15.027343zm0 0"/><path d="m172.578125 104.960938h15.027344v15.023437h-15.027344zm0 0"/><path d="m127.613281 172.410156h15.027344v15.027344h-15.027344zm0 0"/><path d="m60.164062 202.351562h15.023438v15.027344h-15.023438zm0 0"/><path d="m37.679688 239.859375h15.023437v15.027344h-15.023437zm0 0"/><path d="m112.699219 284.828125h15.023437v15.027344h-15.023437zm0 0"/><path d="m135.179688 254.777344h15.027343v15.023437h-15.027343zm0 0"/><path d="m157.664062 314.769531h15.027344v15.023438h-15.027344zm0 0"/><path d="m195.0625 247.316406h15.027344v15.027344h-15.027344zm0 0"/><path d="m225.113281 217.378906h15.027344v15.023438h-15.027344zm0 0"/><path d="m247.597656 262.34375h15.027344v15.027344h-15.027344zm0 0"/><path d="m255.054688 194.894531h15.027343v15.027344h-15.027343zm0 0"/><path d="m60.164062 367.191406h15.023438v15.027344h-15.023438zm0 0"/><path d="m97.671875 404.703125h15.027344v15.027344h-15.027344zm0 0"/><path d="m165.121094 382.21875h15.027344v15.027344h-15.027344zm0 0"/><path d="m217.546875 359.734375h15.027344v15.027344h-15.027344zm0 0"/><path d="m195.0625 412.160156h15.027344v15.027344h-15.027344zm0 0"/><path d="m67.730469 269.800781h15.027343v15.027344h-15.027343zm0 0"/><path d="m165.121094 194.894531h15.027344v15.027344h-15.027344zm0 0"/><path d="m105.128906 149.925781h15.027344v15.027344h-15.027344zm0 0"/></svg>