<svg height="512pt" viewBox="-32 0 511 512" width="512pt" xmlns="http://www.w3.org/2000/svg"><path d="m115.792969 120.394531h-68.324219l79.089844-94.648437c7.96875-8.277344 4.367187-25.746094-10.765625-25.746094h-100.410157c-19.859374 0-19.832031 30 0 30h68.324219l-79.199219 94.761719c-7.824218 8.324219-4.1875 25.632812 10.875 25.632812h100.410157c19.859375 0 19.832031-30 0-30zm0 0" fill="#00e7f0"/><path d="m433.382812 107.726562h-28.054687l39.300781-46.933593c7.335938-8.464844 3.578125-25.222657-11.246094-25.222657h-60.175781c-19.863281 0-19.832031 30 0 30h28.058594l-39.085937 46.683594c-7.628907 8.382813-3.941407 25.472656 11.023437 25.472656h60.179687c19.863282 0 19.832032-30 0-30zm0 0" fill="#00c7ce"/><path d="m320.316406 435.90625c0 41.957031-33.871094 76.09375-75.496094 76.09375-41.621093 0-75.460937-34.136719-75.460937-76.09375zm0 0" fill="#f1f2f2"/><path d="m320.316406 435.90625c0 41.957031-33.871094 76.09375-75.496094 76.09375v-76.09375zm0 0" fill="#d1d4d5"/><path d="m384.695312 448.609375h-279.710937c-29.21875 0-45.355469-32-29.609375-55.125l42.632812-62.597656v-78.21875c0-51.585938 30.839844-97.625 78.566407-117.269531 8.035156-3.304688 13.226562-10.933594 13.226562-19.441407 0-19.429687 15.277344-35.953125 35.019531-35.535156h.019532c18.335937.355469 35.035156 15.277344 35.035156 35.535156 0 8.507813 5.195312 16.136719 13.226562 19.441407 47.726563 19.644531 78.566407 65.675781 78.566407 117.269531v78.21875l42.632812 62.597656c15.707031 23.066406-.320312 55.125-29.605469 55.125zm0 0" fill="#ffdb83"/><path d="m384.695312 448.609375h-139.871093v-368.183594h.015625c18.335937.351563 35.035156 15.273438 35.035156 35.535157 0 8.503906 5.195312 16.132812 13.226562 19.4375 47.726563 19.644531 78.566407 65.675781 78.566407 117.269531v78.21875l42.632812 62.597656c15.707031 23.066406-.320312 55.125-29.605469 55.125zm0 0" fill="#fcad2d"/><path d="m384.695312 448.609375h-279.710937c-29.21875 0-45.355469-32-29.609375-55.125l42.632812-62.597656h253.660157l42.632812 62.597656c15.707031 23.066406-.320312 55.125-29.605469 55.125zm0 0" fill="#fcad2d"/><path d="m384.695312 448.609375h-139.871093v-117.722656h126.84375l42.632812 62.597656c15.707031 23.066406-.320312 55.125-29.605469 55.125zm0 0" fill="#f49103"/></svg>