<svg width="100%" height="100%" xmlns="http://www.w3.org/2000/svg" xmlns:xlink="http://www.w3.org/1999/xlink" viewBox="0 0 100 100" preserveAspectRatio="xMidYMid"><!--?xml version="1.0" encoding="utf-8"?--><!--Generator: Adobe Illustrator 21.0.0, SVG Export Plug-In . SVG Version: 6.00 Build 0)--><svg version="1.1" xmlns="http://www.w3.org/2000/svg" xmlns:xlink="http://www.w3.org/1999/xlink" x="0px" y="0px" viewBox="0 0 100 100" style="transform-origin: 50px 50px 0px;" xml:space="preserve"><g style="transform-origin: 50px 50px 0px;"><g style="transform-origin: 50px 50px 0px; transform: scale(0.9);"><g style="transform-origin: 50px 50px 0px;"><g><style type="text/css" style="transform-origin: 50px 50px 0px; animation-duration: 1.3s; animation-delay: -1.3s; animation-direction: normal;" class="ld ld-static">.st0{fill:#849B87;stroke:#333333;stroke-width:3;stroke-miterlimit:10;} .st1{fill:#A0C8D7;stroke:#333333;stroke-width:3;stroke-miterlimit:10;} .st2{fill:#F5E6C8;} .st3{fill:#ABBD81;} .st4{fill:#F5E6C8;stroke:#000000;stroke-width:2.5;stroke-miterlimit:10;} .st5{fill:#333333;} .st6{fill:#F5E6C8;stroke:#000000;stroke-width:3.5;stroke-miterlimit:10;} .st7{fill:#849B87;} .st8{fill:#F5E6C8;stroke:#333333;stroke-width:4;stroke-miterlimit:10;} .st9{fill:#C33737;} .st10{fill:#A0C8D7;} .st11{fill:#F5E6C8;stroke:#333333;stroke-width:3;stroke-miterlimit:10;} .st12{fill:#A3A3A3;} .st13{fill:#F5E6C8;stroke:#000000;stroke-width:3.8621;stroke-miterlimit:10;} .st14{fill:#FFDC6C;} .st15{fill:#ABBD81;stroke:#333333;stroke-width:3;stroke-miterlimit:10;} .st16{fill:#E15B64;} .st17{fill:#F5E6C8;stroke:#333333;stroke-width:3.6781;stroke-miterlimit:10;} .st18{fill:#F5E6C8;stroke:#333333;stroke-width:2.7586;stroke-miterlimit:10;} .st19{fill:#F5E6C8;stroke:#333333;stroke-width:3.9518;stroke-miterlimit:10;} .st20{fill:#FFFFFF;stroke:#333333;stroke-width:3.9092;stroke-miterlimit:10;} .st21{fill:#FFFFFF;stroke:#333333;stroke-width:3.6699;stroke-miterlimit:10;} .st22{fill:#F5E6C8;stroke:#000000;stroke-width:3;stroke-miterlimit:10;} .st23{fill:#F47E60;} .st24{fill:#F8B26A;} .st25{fill:#FFFFFF;} .st26{fill:#F5E6C8;stroke:#000000;stroke-width:3.9059;stroke-miterlimit:10;} .st27{fill:#F5E6C8;stroke:#000000;stroke-width:4;stroke-miterlimit:10;} .st28{fill:#C33636;} .st29{fill:#F5E6C8;stroke:#000000;stroke-width:3.8153;stroke-miterlimit:10;} .st30{fill:#E0E0E0;} .st31{fill:#F5E6C8;stroke:#000000;stroke-width:2.9643;stroke-miterlimit:10;} .st32{fill:#E15B64;stroke:#000000;stroke-width:2.9419;stroke-miterlimit:10;} .st33{fill:#666666;} .st34{fill:#FCEDCE;} .st35{fill:#FFF2D9;} .st36{fill:#7A8F7C;} .st37{fill:#96B099;}</style><g style="transform-origin: 50px 50px 0px; animation-duration: 1.3s; animation-delay: -1.25517s; animation-direction: normal;" class="ld ld-static"><path class="st2" d="M31.449,56.981c-0.96,0-1.744-0.458-2.358-1.202c-2.183-2.645-2.183-8.948,0-11.593 c0.614-0.744,1.398-1.203,2.358-1.203l13.995-1.685c-2-16.608-9.509-27.573-16.352-27.573c-7.979,0-16.869,14.897-16.869,36.275 s8.89,36.275,16.869,36.275c6.848,0,14.363-10.981,16.356-27.608L31.449,56.981z" fill="#1d3f72" style="fill: rgb(29, 63, 114);"></path></g><g style="transform-origin: 50px 50px 0px; animation-duration: 1.3s; animation-delay: -1.21034s; animation-direction: normal;" class="ld ld-static"><path class="st33" d="M86.76,37.719h-7.659c-0.952-2.816-2.313-4.664-4.094-4.664c-4.548-0.036-8.959-1.059-13.263-2.726 c-6.166-2.389-12.11-6.113-17.906-10.259c-0.329-0.585-0.665-1.159-1.013-1.704c-3.732-5.849-8.517-9.362-13.734-9.362 c-5.217,0-10.002,3.513-13.734,9.362c-0.8,1.253-1.551,2.614-2.248,4.07c-0.465,0.971-0.905,1.984-1.32,3.036 c-0.207,0.526-0.408,1.062-0.602,1.607c-0.388,1.09-0.749,2.218-1.082,3.38c-0.166,0.581-0.325,1.17-0.477,1.768 s-0.296,1.203-0.432,1.816c-0.273,1.226-0.516,2.483-0.726,3.767C7.84,41.66,7.5,45.755,7.5,50c0,22.642,9.667,40.997,21.592,40.997 c5.203,0,9.976-3.496,13.704-9.317c6.641-4.495,12.989-8.566,18.949-11.284c4.674-2.132,9.111-3.433,13.263-3.45 c1.773,0,3.13-1.832,4.082-4.628h7.671C94.413,62.317,94.413,37.719,86.76,37.719z M29.092,86.275 c-7.979,0-16.869-14.897-16.869-36.275s8.89-36.275,16.869-36.275c6.844,0,14.352,10.965,16.352,27.573l-13.995,1.685 c-0.96,0-1.744,0.458-2.358,1.203c-2.183,2.645-2.183,8.948,0,11.593c0.614,0.744,1.398,1.202,2.358,1.202l13.999,1.685 C43.455,75.294,35.94,86.275,29.092,86.275z" fill="#3d7db4" style="fill: rgb(61, 125, 180);"></path></g><g style="transform-origin: 50px 50px 0px; animation-duration: 1.3s; animation-delay: -1.16552s; animation-direction: normal;" class="ld ld-static"><path d="M29.079,86.275c0.002,0,0.004,0,0.007,0c-0.238,0-0.478-0.015-0.717-0.042C28.605,86.259,28.843,86.275,29.079,86.275z" fill="#d8ebf9" style="fill: rgb(216, 235, 249);"></path></g><g style="transform-origin: 50px 50px 0px; animation-duration: 1.3s; animation-delay: -1.12069s; animation-direction: normal;" class="ld ld-static"><path d="M27.491,86.075c-0.199-0.048-0.397-0.103-0.596-0.168C27.094,85.971,27.292,86.027,27.491,86.075z" fill="#d8ebf9" style="fill: rgb(216, 235, 249);"></path></g><g style="transform-origin: 50px 50px 0px; animation-duration: 1.3s; animation-delay: -1.07586s; animation-direction: normal;" class="ld ld-static"><path d="M29.93,86.214c-0.043,0.005-0.085,0.014-0.128,0.019C29.845,86.228,29.887,86.219,29.93,86.214z" fill="#d8ebf9" style="fill: rgb(216, 235, 249);"></path></g><g style="transform-origin: 50px 50px 0px; animation-duration: 1.3s; animation-delay: -1.03103s; animation-direction: normal;" class="ld ld-static"><path d="M30.679,86.075c-0.049,0.012-0.099,0.025-0.148,0.036C30.581,86.1,30.63,86.087,30.679,86.075z" fill="#d8ebf9" style="fill: rgb(216, 235, 249);"></path></g><g style="transform-origin: 50px 50px 0px; animation-duration: 1.3s; animation-delay: -0.986207s; animation-direction: normal;" class="ld ld-static"><path d="M31.404,85.863c-0.043,0.015-0.085,0.029-0.128,0.043C31.318,85.892,31.361,85.878,31.404,85.863z" fill="#d8ebf9" style="fill: rgb(216, 235, 249);"></path></g><g style="transform-origin: 50px 50px 0px; animation-duration: 1.3s; animation-delay: -0.941379s; animation-direction: normal;" class="ld ld-static"><path d="M28.24,86.214c-0.2-0.026-0.4-0.059-0.601-0.103C27.84,86.155,28.04,86.188,28.24,86.214z" fill="#d8ebf9" style="fill: rgb(216, 235, 249);"></path></g><g style="transform-origin: 50px 50px 0px; animation-duration: 1.3s; animation-delay: -0.896552s; animation-direction: normal;" class="ld ld-static"><path d="M32.118,85.581c-0.022,0.01-0.044,0.019-0.065,0.028C32.075,85.599,32.096,85.59,32.118,85.581z" fill="#d8ebf9" style="fill: rgb(216, 235, 249);"></path></g><g style="transform-origin: 50px 50px 0px; animation-duration: 1.3s; animation-delay: -0.851724s; animation-direction: normal;" class="ld ld-static"><path d="M32.054,14.391c0.021,0.009,0.042,0.018,0.063,0.027C32.096,14.409,32.075,14.401,32.054,14.391z" fill="#d8ebf9" style="fill: rgb(216, 235, 249);"></path></g><g style="transform-origin: 50px 50px 0px; animation-duration: 1.3s; animation-delay: -0.806897s; animation-direction: normal;" class="ld ld-static"><path d="M30.531,13.889c0.049,0.011,0.098,0.024,0.148,0.036C30.629,13.913,30.58,13.9,30.531,13.889z" fill="#d8ebf9" style="fill: rgb(216, 235, 249);"></path></g><g style="transform-origin: 50px 50px 0px; animation-duration: 1.3s; animation-delay: -0.762069s; animation-direction: normal;" class="ld ld-static"><path d="M31.276,14.094c0.042,0.014,0.084,0.028,0.127,0.043C31.361,14.122,31.318,14.107,31.276,14.094z" fill="#d8ebf9" style="fill: rgb(216, 235, 249);"></path></g><g style="transform-origin: 50px 50px 0px; animation-duration: 1.3s; animation-delay: -0.717241s; animation-direction: normal;" class="ld ld-static"><path class="st16" d="M45.431,41.3l-13.982,1.683c-0.96,0-1.744,0.458-2.358,1.203c-0.002,0.003-0.004,0.006-0.006,0.009 c-2.173,2.647-2.173,8.928,0,11.575c0.002,0.003,0.004,0.006,0.006,0.009c0.614,0.744,1.398,1.202,2.358,1.202l13.986,1.684 c0.329-2.744,0.513-5.637,0.513-8.665C45.948,46.959,45.763,44.055,45.431,41.3z" fill="#71c2cc" style="fill: rgb(113, 194, 204);"></path></g><g style="transform-origin: 50px 50px 0px; animation-duration: 1.3s; animation-delay: -0.672414s; animation-direction: normal;" class="ld ld-static"><path d="M29.079,13.725c-0.236,0-0.473,0.016-0.71,0.042c0.239-0.026,0.478-0.041,0.717-0.041 C29.083,13.726,29.081,13.725,29.079,13.725z" fill="#d8ebf9" style="fill: rgb(216, 235, 249);"></path></g><g style="transform-origin: 50px 50px 0px; animation-duration: 1.3s; animation-delay: -0.627586s; animation-direction: normal;" class="ld ld-static"><path d="M26.116,14.391c0.217-0.096,0.434-0.18,0.651-0.255C26.55,14.211,26.333,14.296,26.116,14.391z" fill="#d8ebf9" style="fill: rgb(216, 235, 249);"></path></g><g style="transform-origin: 50px 50px 0px; animation-duration: 1.3s; animation-delay: -0.582759s; animation-direction: normal;" class="ld ld-static"><path d="M26.894,14.094c0.199-0.065,0.398-0.121,0.597-0.169C27.293,13.972,27.094,14.028,26.894,14.094z" fill="#d8ebf9" style="fill: rgb(216, 235, 249);"></path></g><g style="transform-origin: 50px 50px 0px; animation-duration: 1.3s; animation-delay: -0.537931s; animation-direction: normal;" class="ld ld-static"><path d="M29.802,13.767c0.043,0.005,0.086,0.014,0.13,0.019C29.888,13.781,29.845,13.772,29.802,13.767z" fill="#d8ebf9" style="fill: rgb(216, 235, 249);"></path></g><g style="transform-origin: 50px 50px 0px; animation-duration: 1.3s; animation-delay: -0.493103s; animation-direction: normal;" class="ld ld-static"><path d="M26.767,85.863c-0.216-0.075-0.433-0.159-0.649-0.254C26.334,85.704,26.55,85.788,26.767,85.863z" fill="#d8ebf9" style="fill: rgb(216, 235, 249);"></path></g><g style="transform-origin: 50px 50px 0px; animation-duration: 1.3s; animation-delay: -0.448276s; animation-direction: normal;" class="ld ld-static"><path d="M27.639,13.889c0.2-0.044,0.4-0.077,0.6-0.103C28.039,13.812,27.84,13.845,27.639,13.889z" fill="#d8ebf9" style="fill: rgb(216, 235, 249);"></path></g><metadata xmlns:d="https://loading.io/stock/" style="transform-origin: 50px 50px 0px; animation-duration: 1.3s; animation-delay: -0.403448s; animation-direction: normal;" class="ld ld-static">
<d:name style="transform-origin: 50px 50px 0px; animation-duration: 1.3s; animation-delay: -0.358621s; animation-direction: normal;" class="ld ld-static">speaker</d:name>
<d:tags style="transform-origin: 50px 50px 0px; animation-duration: 1.3s; animation-delay: -0.313793s; animation-direction: normal;" class="ld ld-static">horn,mic,loudspeaker,say,broadcast,speaker,conversation</d:tags>
<d:license style="transform-origin: 50px 50px 0px; animation-duration: 1.3s; animation-delay: -0.268966s; animation-direction: normal;" class="ld ld-static">cc-by</d:license>
<d:slug style="transform-origin: 50px 50px 0px; animation-duration: 1.3s; animation-delay: -0.224138s; animation-direction: normal;" class="ld ld-static">bczv2g</d:slug>
</metadata></g></g></g></g><style type="text/css" style="transform-origin: 50px 50px 0px; animation-duration: 1.3s; animation-delay: -0.17931s; animation-direction: normal;" class="ld ld-static"></style></svg></svg>